<?xml version="1.0" standalone="no"?>
<!DOCTYPE svg PUBLIC "-//W3C//DTD SVG 20010904//EN"
 "http://www.w3.org/TR/2001/REC-SVG-20010904/DTD/svg10.dtd">
<svg version="1.0" xmlns="http://www.w3.org/2000/svg"
 width="512.000000pt" height="512.000000pt" viewBox="0 0 512.000000 512.000000"
 preserveAspectRatio="xMidYMid meet">

<g transform="translate(0.000000,512.000000) scale(0.100000,-0.100000)"
fill="#000000" stroke="none">
<path d="M343 5105 c-166 -45 -285 -165 -328 -332 -13 -50 -15 -319 -15 -2080
0 -1443 3 -2037 11 -2075 35 -168 178 -311 347 -347 38 -8 389 -11 1204 -11
l1150 0 -63 47 c-131 95 -297 274 -391 419 -89 138 -174 355 -210 537 -32 160
-32 414 0 574 44 220 139 440 268 620 83 115 262 290 379 369 532 361 1204
363 1745 5 103 -68 281 -237 361 -344 l59 -78 0 1150 c0 804 -3 1166 -11 1203
-36 169 -177 311 -347 347 -38 8 -624 11 -2080 10 -1711 0 -2035 -3 -2079 -14z
m931 -709 c18 -8 46 -31 62 -52 28 -36 29 -43 32 -161 l4 -123 109 0 c128 0
164 -11 205 -66 23 -30 29 -48 29 -89 0 -41 -6 -59 -29 -89 -41 -55 -77 -66
-205 -66 l-109 0 -4 -123 c-3 -118 -4 -125 -32 -161 -54 -71 -142 -84 -210
-32 -54 41 -66 79 -66 205 l0 111 -111 0 c-127 0 -164 12 -207 68 -38 50 -38
124 0 174 43 56 80 68 206 68 l110 0 4 123 c3 116 5 126 30 159 47 62 115 82
182 54z m2786 -358 c56 -28 96 -99 86 -151 -10 -53 -43 -97 -89 -117 -39 -18
-68 -20 -412 -20 -344 0 -373 2 -412 20 -46 20 -79 64 -89 117 -10 52 30 123
86 151 43 22 50 22 415 22 365 0 372 0 415 -22z m-3035 -2177 c22 -10 74 -53
115 -95 l74 -76 86 84 c104 102 144 119 215 92 51 -20 80 -52 96 -107 19 -60
-6 -110 -101 -204 l-80 -79 84 -86 c102 -104 119 -144 92 -215 -20 -51 -52
-80 -107 -96 -60 -19 -110 6 -204 101 l-79 80 -86 -84 c-104 -102 -144 -119
-215 -92 -50 20 -78 50 -96 103 -20 61 1 106 97 203 l84 86 -76 74 c-115 113
-135 174 -84 258 21 34 87 72 125 72 11 0 38 -9 60 -19z"/>
</g>
</svg>
